<svg width="45" height="104" viewBox="0 0 45 104" fill="none" xmlns="http://www.w3.org/2000/svg">
<path d="M21.0079 2.78268C21.1279 1.13017 22.5648 -0.112143 24.2173 0.00788212C25.8698 0.127907 27.1121 1.56482 26.9921 3.21732L21.0079 2.78268ZM26.2582 102.975C25.1675 104.222 23.2722 104.349 22.025 103.258L1.70107 85.4836C0.453894 84.3929 0.327072 82.4976 1.41781 81.2505C2.50855 80.0033 4.4038 79.8765 5.65098 80.9672L23.7167 96.7668L39.5164 78.7011C40.6071 77.4539 42.5024 77.3271 43.7495 78.4178C44.9967 79.5086 45.1236 81.4038 44.0328 82.651L26.2582 102.975ZM26.9921 3.21732C24.2952 40.349 24.3767 61.6962 26.9933 100.8L21.0067 101.2C18.3734 61.8478 18.2887 40.2199 21.0079 2.78268L26.9921 3.21732Z" fill="white"/>
</svg>
