<svg width="35" height="34" viewBox="0 0 35 34" fill="none" xmlns="http://www.w3.org/2000/svg">
<path d="M34.3583 20.9931C34.7667 19.612 35 18.1204 35 16.5735C35 15.0267 34.7667 13.5351 34.3583 12.1539H17.325L7.46666 2.98325C5.13333 4.53011 3.20833 6.62942 1.86666 9.06021L9.91666 16.5735L1.925 24.0869C3.20833 26.5176 5.13333 28.617 7.525 30.1638L17.325 20.9931H34.3583Z" fill="#699635"/>
<path d="M0.875 11.3253C0.291667 12.9826 0 14.7505 0 16.5735C0 18.3966 0.291667 20.1645 0.875 21.8218L6.475 16.5735L0.875 11.3253Z" fill="#3E4347"/>
<path d="M9.50833 31.3239C11.9 32.4841 14.6417 33.147 17.5 33.147C24.675 33.147 30.8583 29.0589 33.5417 23.1477H18.3167L9.50833 31.3239Z" fill="#428BC1"/>
<path d="M33.5417 9.99936C30.8583 4.08814 24.675 0 17.5 0C14.6417 0 11.9 0.662941 9.50833 1.82309L18.3167 9.99936H33.5417Z" fill="#ED4C5C"/>
<path d="M34.125 11.4357C33.95 10.9385 33.775 10.4413 33.5417 9.99936H18.3167L9.50833 1.82309C9.1 1.98882 8.75 2.20981 8.34167 2.43079C8.05 2.59652 7.75833 2.8175 7.46667 2.98324L17.325 12.1539H34.3583C34.3 11.9329 34.2417 11.6567 34.125 11.4357Z" fill="white"/>
<path d="M1.925 9.06018C1.86667 9.17067 1.80833 9.28116 1.75 9.4469C1.45833 10.0546 1.16667 10.6623 0.933334 11.3252L6.53333 16.5735L0.933334 21.8218C1.16667 22.4847 1.4 23.0924 1.75 23.7001C1.80833 23.8106 1.86667 23.9211 1.925 24.0868L9.91667 16.5735L1.925 9.06018Z" fill="#FFCE31"/>
<path d="M17.325 20.9931L7.46667 30.1638C7.64167 30.2743 7.875 30.44 8.05 30.5505C8.51667 30.8268 8.98333 31.103 9.50833 31.324L18.3167 23.1477H33.5417C33.775 22.5952 34.0083 22.0428 34.2417 21.4351C34.3 21.2694 34.3 21.1589 34.3583 20.9931H17.325Z" fill="white"/>
</svg>
